# xmcd
# 
# Track frame offsets:
#     150
#     11900
#     26985
#     39170
#     50157
#     69050
#     87225
#     105055
#     121142
#     134782
#     151462
#     182537
#     201992
#     219065
#     242007
#     264952
# 
# Disc length: 3626
# 
# Revision: 1
# Processed by: cddbd v1.5.2PL0 Copyright (c) Steve Scherf et al.
# Submitted via: BonkEnc v1.0.15
# 
DISCID=d10e2810
DTITLE=Various Artist - Rhythm and Soul 
DYEAR=1998
DGENRE=Rhythmic Soul
TTITLE0=Dancing In The Street - Martha and The Vandellas
TTITLE1=Superfreak - Rick James
TTITLE2=You Can't Hurry Love - Diana Ross and The Supremes
TTITLE3=Please Mr Postman - The Marvelettes
TTITLE4=Jump To It - Aretha Franklin
TTITLE5=Ai No Corrida - Quincy Jones
TTITLE6=Stomp - The Brothers Johnson
TTITLE7=Don't Leave Me This Way - Thelma Houston
TTITLE8=That's The Way - Kc and The Sunshine Band
TTITLE9=Solid - Ashford and Simpson
TTITLE10=Papa Was A Rolling Stone - The Temptations
TTITLE11=Nightshift - The Commodores
TTITLE12=I Love Your Smile - Shanice
TTITLE13=No Diggity - Blackstreet
TTITLE14=Proud Mary - Ike and Tina Turner
TTITLE15=Pisteaudio 16
EXTD=
EXTT0=
EXTT1=
EXTT2=
EXTT3=
EXTT4=
EXTT5=
EXTT6=
EXTT7=
EXTT8=
EXTT9=
EXTT10=
EXTT11=
EXTT12=
EXTT13=
EXTT14=
EXTT15=
PLAYORDER=
